<?xml version="1.0" encoding="UTF-8" standalone="no"?>
<svg
   xmlns:dc="http://purl.org/dc/elements/1.1/"
   xmlns:cc="http://creativecommons.org/ns#"
   xmlns:rdf="http://www.w3.org/1999/02/22-rdf-syntax-ns#"
   xmlns:svg="http://www.w3.org/2000/svg"
   xmlns="http://www.w3.org/2000/svg"
   id="svg32"
   version="1.1"
   viewBox="0 0 186 174"
   height="174"
   width="186">
  <metadata
     id="metadata36">
    <rdf:RDF>
      <cc:Work
         rdf:about="">
        <dc:format>image/svg+xml</dc:format>
        <dc:type
           rdf:resource="http://purl.org/dc/dcmitype/StillImage" />
      </cc:Work>
    </rdf:RDF>
  </metadata>
  <!-- Generator: Sketch 3.7.2 (28276) - http://www.bohemiancoding.com/sketch -->
  <title
     id="title2">open-source</title>
  <desc
     id="desc4">Created with Sketch.</desc>
  <defs
     id="defs6" />
  <g
     transform="translate(-25,-13)"
     style="fill:none;fill-rule:evenodd;stroke:none;stroke-width:1"
     id="Page-4">
    <g
       transform="translate(0,-18)"
       id="Open-Source">
      <g
         style="fill:#e8f6f8"
         transform="translate(25,31)"
         id="faded">
        <path
           id="4"
           d="m 55,91 c -3.33,0 -6,2.67 -6,6 0,2.19 1.23,4.14 3,5.16 V 106 l -6,6 -6,-6 v -3.84 c 1.77,-1.02 3,-2.94 3,-5.16 0,-3.33 -2.67,-6 -6,-6 -3.33,0 -6,2.67 -6,6 0,2.19 1.23,4.14 3,5.16 v 5.34 l 9,9 v 5.34 c -1.77,1.02 -3,2.94 -3,5.16 0,3.33 2.67,6 6,6 3.33,0 6,-2.67 6,-6 0,-2.19 -1.23,-4.14 -3,-5.16 v -5.34 l 9,-9 v -5.34 c 1.77,-1.02 3,-2.94 3,-5.16 0,-3.33 -2.67,-6 -6,-6 z m -18,9.6 c -1.98,0 -3.6,-1.65 -3.6,-3.6 0,-1.95 1.65,-3.6 3.6,-3.6 1.95,0 3.6,1.65 3.6,3.6 0,1.95 -1.65,3.6 -3.6,3.6 z m 9,30 c -1.98,0 -3.6,-1.65 -3.6,-3.6 0,-1.95 1.65,-3.6 3.6,-3.6 1.95,0 3.6,1.65 3.6,3.6 0,1.95 -1.65,3.6 -3.6,3.6 z m 9,-30 c -1.98,0 -3.6,-1.65 -3.6,-3.6 0,-1.95 1.65,-3.6 3.6,-3.6 1.95,0 3.6,1.65 3.6,3.6 0,1.95 -1.65,3.6 -3.6,3.6 z" />
        <path
           id="3"
           d="m 163,110 c -3.33,0 -6,2.67 -6,6 0,2.19 1.23,4.14 3,5.16 V 125 l -6,6 -6,-6 v -3.84 c 1.77,-1.02 3,-2.94 3,-5.16 0,-3.33 -2.67,-6 -6,-6 -3.33,0 -6,2.67 -6,6 0,2.19 1.23,4.14 3,5.16 v 5.34 l 9,9 v 5.34 c -1.77,1.02 -3,2.94 -3,5.16 0,3.33 2.67,6 6,6 3.33,0 6,-2.67 6,-6 0,-2.19 -1.23,-4.14 -3,-5.16 v -5.34 l 9,-9 v -5.34 c 1.77,-1.02 3,-2.94 3,-5.16 0,-3.33 -2.67,-6 -6,-6 z m -18,9.6 c -1.98,0 -3.6,-1.65 -3.6,-3.6 0,-1.95 1.65,-3.6 3.6,-3.6 1.95,0 3.6,1.65 3.6,3.6 0,1.95 -1.65,3.6 -3.6,3.6 z m 9,30 c -1.98,0 -3.6,-1.65 -3.6,-3.6 0,-1.95 1.65,-3.6 3.6,-3.6 1.95,0 3.6,1.65 3.6,3.6 0,1.95 -1.65,3.6 -3.6,3.6 z m 9,-30 c -1.98,0 -3.6,-1.65 -3.6,-3.6 0,-1.95 1.65,-3.6 3.6,-3.6 1.95,0 3.6,1.65 3.6,3.6 0,1.95 -1.65,3.6 -3.6,3.6 z" />
        <path
           id="2"
           d="m 20,51 c -2.22,0 -4,1.78 -4,4 0,1.46 0.82,2.76 2,3.44 V 61 l -4,4 -4,-4 v -2.56 c 1.18,-0.68 2,-1.96 2,-3.44 0,-2.22 -1.78,-4 -4,-4 -2.22,0 -4,1.78 -4,4 0,1.46 0.82,2.76 2,3.44 V 62 l 6,6 v 3.56 c -1.18,0.68 -2,1.96 -2,3.44 0,2.22 1.78,4 4,4 2.22,0 4,-1.78 4,-4 0,-1.46 -0.82,-2.76 -2,-3.44 V 68 l 6,-6 v -3.56 c 1.18,-0.68 2,-1.96 2,-3.44 0,-2.22 -1.78,-4 -4,-4 z M 8,57.4 c -1.32,0 -2.4,-1.1 -2.4,-2.4 0,-1.3 1.1,-2.4 2.4,-2.4 1.3,0 2.4,1.1 2.4,2.4 0,1.3 -1.1,2.4 -2.4,2.4 z m 6,20 c -1.32,0 -2.4,-1.1 -2.4,-2.4 0,-1.3 1.1,-2.4 2.4,-2.4 1.3,0 2.4,1.1 2.4,2.4 0,1.3 -1.1,2.4 -2.4,2.4 z m 6,-20 c -1.32,0 -2.4,-1.1 -2.4,-2.4 0,-1.3 1.1,-2.4 2.4,-2.4 1.3,0 2.4,1.1 2.4,2.4 0,1.3 -1.1,2.4 -2.4,2.4 z" />
        <path
           id="path11"
           d="m 182,61 c -2.22,0 -4,1.78 -4,4 0,1.46 0.82,2.76 2,3.44 V 71 l -4,4 -4,-4 v -2.56 c 1.18,-0.68 2,-1.96 2,-3.44 0,-2.22 -1.78,-4 -4,-4 -2.22,0 -4,1.78 -4,4 0,1.46 0.82,2.76 2,3.44 V 72 l 6,6 v 3.56 c -1.18,0.68 -2,1.96 -2,3.44 0,2.22 1.78,4 4,4 2.22,0 4,-1.78 4,-4 0,-1.46 -0.82,-2.76 -2,-3.44 V 78 l 6,-6 v -3.56 c 1.18,-0.68 2,-1.96 2,-3.44 0,-2.22 -1.78,-4 -4,-4 z m -12,6.4 c -1.32,0 -2.4,-1.1 -2.4,-2.4 0,-1.3 1.1,-2.4 2.4,-2.4 1.3,0 2.4,1.1 2.4,2.4 0,1.3 -1.1,2.4 -2.4,2.4 z m 6,20 c -1.32,0 -2.4,-1.1 -2.4,-2.4 0,-1.3 1.1,-2.4 2.4,-2.4 1.3,0 2.4,1.1 2.4,2.4 0,1.3 -1.1,2.4 -2.4,2.4 z m 6,-20 c -1.32,0 -2.4,-1.1 -2.4,-2.4 0,-1.3 1.1,-2.4 2.4,-2.4 1.3,0 2.4,1.1 2.4,2.4 0,1.3 -1.1,2.4 -2.4,2.4 z" />
        <path
           id="path13"
           d="m 16,128 c -2.22,0 -4,1.78 -4,4 0,1.46 0.82,2.76 2,3.44 V 138 l -4,4 -4,-4 v -2.56 c 1.18,-0.68 2,-1.96 2,-3.44 0,-2.22 -1.78,-4 -4,-4 -2.22,0 -4,1.78 -4,4 0,1.46 0.82,2.76 2,3.44 V 139 l 6,6 v 3.56 c -1.18,0.68 -2,1.96 -2,3.44 0,2.22 1.78,4 4,4 2.22,0 4,-1.78 4,-4 0,-1.46 -0.82,-2.76 -2,-3.44 V 145 l 6,-6 v -3.56 c 1.18,-0.68 2,-1.96 2,-3.44 0,-2.22 -1.78,-4 -4,-4 z m -12,6.4 c -1.32,0 -2.4,-1.1 -2.4,-2.4 0,-1.3 1.1,-2.4 2.4,-2.4 1.3,0 2.4,1.1 2.4,2.4 0,1.3 -1.1,2.4 -2.4,2.4 z m 6,20 c -1.32,0 -2.4,-1.1 -2.4,-2.4 0,-1.3 1.1,-2.4 2.4,-2.4 1.3,0 2.4,1.1 2.4,2.4 0,1.3 -1.1,2.4 -2.4,2.4 z m 6,-20 c -1.32,0 -2.4,-1.1 -2.4,-2.4 0,-1.3 1.1,-2.4 2.4,-2.4 1.3,0 2.4,1.1 2.4,2.4 0,1.3 -1.1,2.4 -2.4,2.4 z" />
        <path
           id="path15"
           d="m 121,146 c -2.22,0 -4,1.78 -4,4 0,1.46 0.82,2.76 2,3.44 V 156 l -4,4 -4,-4 v -2.56 c 1.18,-0.68 2,-1.96 2,-3.44 0,-2.22 -1.78,-4 -4,-4 -2.22,0 -4,1.78 -4,4 0,1.46 0.82,2.76 2,3.44 V 157 l 6,6 v 3.56 c -1.18,0.68 -2,1.96 -2,3.44 0,2.22 1.78,4 4,4 2.22,0 4,-1.78 4,-4 0,-1.46 -0.82,-2.76 -2,-3.44 V 163 l 6,-6 v -3.56 c 1.18,-0.68 2,-1.96 2,-3.44 0,-2.22 -1.78,-4 -4,-4 z m -12,6.4 c -1.32,0 -2.4,-1.1 -2.4,-2.4 0,-1.3 1.1,-2.4 2.4,-2.4 1.3,0 2.4,1.1 2.4,2.4 0,1.3 -1.1,2.4 -2.4,2.4 z m 6,20 c -1.32,0 -2.4,-1.1 -2.4,-2.4 0,-1.3 1.1,-2.4 2.4,-2.4 1.3,0 2.4,1.1 2.4,2.4 0,1.3 -1.1,2.4 -2.4,2.4 z m 6,-20 c -1.32,0 -2.4,-1.1 -2.4,-2.4 0,-1.3 1.1,-2.4 2.4,-2.4 1.3,0 2.4,1.1 2.4,2.4 0,1.3 -1.1,2.4 -2.4,2.4 z" />
        <path
           id="1"
           d="m 93,0 c -1.11,0 -2,0.89 -2,2 0,0.73 0.41,1.38 1,1.72 V 5 L 90,7 88,5 V 3.72 C 88.59,3.38 89,2.74 89,2 89,0.89 88.11,0 87,0 c -1.11,0 -2,0.89 -2,2 0,0.73 0.41,1.38 1,1.72 V 5.5 l 3,3 v 1.78 c -0.59,0.34 -1,0.98 -1,1.72 0,1.11 0.89,2 2,2 1.11,0 2,-0.89 2,-2 0,-0.73 -0.41,-1.38 -1,-1.72 V 8.5 l 3,-3 V 3.72 C 94.59,3.38 95,2.74 95,2 95,0.89 94.11,0 93,0 Z m -6,3.2 c -0.66,0 -1.2,-0.55 -1.2,-1.2 0,-0.65 0.55,-1.2 1.2,-1.2 0.65,0 1.2,0.55 1.2,1.2 0,0.65 -0.55,1.2 -1.2,1.2 z m 3,10 c -0.66,0 -1.2,-0.55 -1.2,-1.2 0,-0.65 0.55,-1.2 1.2,-1.2 0.65,0 1.2,0.55 1.2,1.2 0,0.65 -0.55,1.2 -1.2,1.2 z m 3,-10 c -0.66,0 -1.2,-0.55 -1.2,-1.2 0,-0.65 0.55,-1.2 1.2,-1.2 0.65,0 1.2,0.55 1.2,1.2 0,0.65 -0.55,1.2 -1.2,1.2 z" />
        <path
           id="path18"
           d="m 25,17 c -1.11,0 -2,0.89 -2,2 0,0.73 0.41,1.38 1,1.72 V 22 l -2,2 -2,-2 v -1.28 c 0.59,-0.34 1,-0.98 1,-1.72 0,-1.11 -0.89,-2 -2,-2 -1.11,0 -2,0.89 -2,2 0,0.73 0.41,1.38 1,1.72 v 1.78 l 3,3 v 1.78 c -0.59,0.34 -1,0.98 -1,1.72 0,1.11 0.89,2 2,2 1.11,0 2,-0.89 2,-2 0,-0.73 -0.41,-1.38 -1,-1.72 V 25.5 l 3,-3 v -1.78 c 0.59,-0.34 1,-0.98 1,-1.72 0,-1.11 -0.89,-2 -2,-2 z m -6,3.2 c -0.66,0 -1.2,-0.55 -1.2,-1.2 0,-0.65 0.55,-1.2 1.2,-1.2 0.65,0 1.2,0.55 1.2,1.2 0,0.65 -0.55,1.2 -1.2,1.2 z m 3,10 c -0.66,0 -1.2,-0.55 -1.2,-1.2 0,-0.65 0.55,-1.2 1.2,-1.2 0.65,0 1.2,0.55 1.2,1.2 0,0.65 -0.55,1.2 -1.2,1.2 z m 3,-10 c -0.66,0 -1.2,-0.55 -1.2,-1.2 0,-0.65 0.55,-1.2 1.2,-1.2 0.65,0 1.2,0.55 1.2,1.2 0,0.65 -0.55,1.2 -1.2,1.2 z" />
        <path
           id="path20"
           d="m 169,27 c -1.11,0 -2,0.89 -2,2 0,0.73 0.41,1.38 1,1.72 V 32 l -2,2 -2,-2 v -1.28 c 0.59,-0.34 1,-0.98 1,-1.72 0,-1.11 -0.89,-2 -2,-2 -1.11,0 -2,0.89 -2,2 0,0.73 0.41,1.38 1,1.72 v 1.78 l 3,3 v 1.78 c -0.59,0.34 -1,0.98 -1,1.72 0,1.11 0.89,2 2,2 1.11,0 2,-0.89 2,-2 0,-0.73 -0.41,-1.38 -1,-1.72 V 35.5 l 3,-3 v -1.78 c 0.59,-0.34 1,-0.98 1,-1.72 0,-1.11 -0.89,-2 -2,-2 z m -6,3.2 c -0.66,0 -1.2,-0.55 -1.2,-1.2 0,-0.65 0.55,-1.2 1.2,-1.2 0.65,0 1.2,0.55 1.2,1.2 0,0.65 -0.55,1.2 -1.2,1.2 z m 3,10 c -0.66,0 -1.2,-0.55 -1.2,-1.2 0,-0.65 0.55,-1.2 1.2,-1.2 0.65,0 1.2,0.55 1.2,1.2 0,0.65 -0.55,1.2 -1.2,1.2 z m 3,-10 c -0.66,0 -1.2,-0.55 -1.2,-1.2 0,-0.65 0.55,-1.2 1.2,-1.2 0.65,0 1.2,0.55 1.2,1.2 0,0.65 -0.55,1.2 -1.2,1.2 z" />
      </g>
      <g
         style="stroke-width:2;stroke-linecap:round;stroke-linejoin:round"
         transform="translate(68,48)"
         id="Main">
        <path
           style="fill:#b9e1ea;fill-opacity:0.76000001;stroke:#3b8594"
           id="main"
           d="m 60,20 c 0,7.3 4.1,13.8 10,17.2 v 11.795606 c 0,0.554711 -0.314152,1.318546 -0.711811,1.716205 L 50,70 30.711811,50.711811 C 30.318688,50.318688 30,49.544441 30,48.995606 V 37.2 C 35.9,33.8 40,27.4 40,20 40,8.9 31.1,0 20,0 8.9,0 0,8.9 0,20 0,27.3 4.1,33.8 10,37.2 v 16.791994 c 0,0.556706 0.316616,1.324622 0.711987,1.719993 L 39.288012,84.288012 C 39.681232,84.681232 40,85.440002 40,86.008006 V 102.8 c -5.9,3.4 -10,9.8 -10,17.2 0,11.1 8.9,20 20,20 11.1,0 20,-8.9 20,-20 0,-7.3 -4.1,-13.8 -10,-17.2 V 86.008006 c 0,-0.556706 0.316616,-1.324622 0.711987,-1.719994 L 89.288012,55.711987 C 89.681232,55.318768 90,54.559998 90,53.991994 V 37.2 C 95.9,33.8 100,27.4 100,20 100,8.9 91.1,0 80,0 68.9,0 60,8.9 60,20 Z" />
        <path
           style="fill:#ffffff;stroke:#4ea3b3"
           id="Path"
           d="m 80,28 c -4.4,0 -8,-3.666667 -8,-8 0,-4.333333 3.666667,-8 8,-8 4.333333,0 8,3.666667 8,8 0,4.333333 -3.666667,8 -8,8 z" />
        <path
           style="fill:#ffffff;stroke:#4ea3b3"
           id="path25"
           d="m 50,128 c -4.4,0 -8,-3.66667 -8,-8 0,-4.33333 3.666667,-8 8,-8 4.333333,0 8,3.66667 8,8 0,4.33333 -3.666667,8 -8,8 z" />
        <path
           style="fill:#ffffff;stroke:#4ea3b3"
           id="path27"
           d="m 20,28 c -4.4,0 -8,-3.666667 -8,-8 0,-4.333333 3.666667,-8 8,-8 4.333333,0 8,3.666667 8,8 0,4.333333 -3.666667,8 -8,8 z" />
      </g>
    </g>
  </g>
</svg>
