<?xml version="1.0" encoding="iso-8859-1"?>
<!-- Generator: Adobe Illustrator 19.0.0, SVG Export Plug-In . SVG Version: 6.00 Build 0)  -->
<svg version="1.1" id="Layer_1" xmlns="http://www.w3.org/2000/svg" xmlns:xlink="http://www.w3.org/1999/xlink" x="0px" y="0px"
	 viewBox="0 0 512.16 512.16" style="enable-background:new 0 0 512.16 512.16;" xml:space="preserve">
<circle style="fill:#B2E3FF;" cx="256.08" cy="256" r="256"/>
<path style="fill:#A9D8F2;" d="M505.012,315.676c-0.096-0.188-0.184-0.388-0.296-0.556c-0.156-0.82-0.448-1.484-0.832-2.06
	c-0.16-0.816-0.448-1.472-0.828-2.044c-0.156-0.82-0.448-1.484-0.832-2.056c-0.16-0.812-0.448-1.472-0.824-2.036
	c-0.156-0.824-0.452-1.492-0.832-2.068c-0.16-0.816-0.448-1.476-0.828-2.044c-0.16-0.82-0.448-1.48-0.828-2.052
	c-0.16-0.82-0.452-1.484-0.832-2.06c-0.16-0.816-0.448-1.476-0.828-2.044c-0.16-0.82-0.452-1.484-0.832-2.056
	c-0.156-0.812-0.448-1.472-0.824-2.04c-0.16-0.82-0.452-1.488-0.832-2.064c-0.16-0.816-0.448-1.476-0.828-2.044
	c-0.156-0.82-0.448-1.484-0.832-2.056c-0.16-0.816-0.448-1.476-0.828-2.048c-0.156-0.82-0.448-1.48-0.828-2.052
	c-0.156-0.82-0.448-1.484-0.832-2.056c-0.16-0.812-0.448-1.472-0.824-2.04c-0.156-0.824-0.452-1.492-0.832-2.064
	c-0.16-0.816-0.448-1.476-0.828-2.044c-0.16-0.82-0.452-1.484-0.832-2.06c-0.16-0.816-0.448-1.472-0.828-2.044
	c-0.16-0.82-0.452-1.484-0.832-2.056c-0.16-0.816-0.448-1.476-0.828-2.044c-0.156-0.816-0.448-1.476-0.824-2.048
	c-0.16-0.824-0.452-1.492-0.832-2.064c-0.16-0.816-0.448-1.476-0.828-2.044c-0.156-0.82-0.448-1.484-0.832-2.06
	c-0.16-0.816-0.448-1.472-0.828-2.044c-0.156-0.82-0.448-1.484-0.832-2.056c-0.16-0.816-0.448-1.476-0.828-2.048
	c-0.156-0.816-0.448-1.48-0.832-2.056c-0.16-0.812-0.448-1.472-0.824-2.036c-0.156-0.824-0.448-1.488-0.832-2.06
	c-0.16-0.82-0.452-1.484-0.832-2.06c-0.16-0.816-0.448-1.476-0.828-2.044c-0.16-0.82-0.452-1.484-0.832-2.056
	c-0.16-0.816-0.448-1.476-0.828-2.048c-0.16-0.82-0.452-1.484-0.832-2.056c-0.156-0.812-0.448-1.472-0.824-2.036
	c-0.16-0.824-0.452-1.492-0.832-2.068c-0.16-0.812-0.448-1.472-0.828-2.044c-0.156-0.82-0.448-1.48-0.828-2.052
	c-0.156-0.82-0.448-1.484-0.832-2.056c-0.16-0.816-0.448-1.476-0.828-2.048c-0.156-0.82-0.448-1.484-0.832-2.056
	c-0.16-0.812-0.448-1.472-0.824-2.036c-0.156-0.824-0.452-1.492-0.832-2.068c-0.16-0.816-0.448-1.476-0.828-2.044
	c-0.16-0.82-0.452-1.484-0.832-2.056c-0.16-0.816-0.448-1.476-0.828-2.044c-0.16-0.82-0.452-1.484-0.832-2.06
	c-0.16-0.816-0.448-1.476-0.828-2.044c-0.16-0.82-0.448-1.48-0.828-2.052c-0.156-0.816-0.448-1.48-0.828-2.052
	c-0.16-0.82-0.448-1.48-0.828-2.052c-0.156-0.82-0.448-1.484-0.832-2.056c-0.16-0.816-0.448-1.476-0.828-2.048
	c-0.156-0.816-0.448-1.48-0.832-2.056c-0.16-0.816-0.448-1.476-0.828-2.044c-0.156-0.82-0.448-1.484-0.832-2.06
	c-0.16-0.808-0.448-1.468-0.824-2.036c-0.156-0.824-0.448-1.488-0.832-2.06c-0.16-0.82-0.452-1.484-0.832-2.056
	c-0.16-0.816-0.448-1.476-0.828-2.048c-0.16-0.82-0.452-1.484-0.832-2.056c-0.16-0.816-0.448-1.476-0.828-2.044
	c-0.16-0.82-0.452-1.484-0.832-2.06c-0.156-0.812-0.448-1.472-0.824-2.036c-0.16-0.824-0.452-1.492-0.832-2.064
	c-0.16-0.816-0.448-1.476-0.828-2.048c-0.156-0.816-0.448-1.476-0.828-2.052c-0.156-0.82-0.448-1.484-0.832-2.056
	c-0.16-0.816-0.448-1.476-0.828-2.044c-0.156-0.82-0.448-1.484-0.832-2.06c-0.16-0.812-0.448-1.472-0.824-2.036
	c-0.156-0.824-0.452-1.492-0.832-2.064c-0.16-0.816-0.448-1.476-0.828-2.048c-0.16-0.82-0.452-1.484-0.832-2.056
	c-0.16-0.816-0.448-1.476-0.828-2.044c-0.16-0.82-0.448-1.48-0.828-2.052c-0.16-0.82-0.452-1.484-0.832-2.06
	c-0.156-0.812-0.448-1.472-0.824-2.036c-0.16-0.824-0.452-1.492-0.832-2.064c-0.16-0.816-0.448-1.476-0.828-2.048
	c-0.156-0.82-0.448-1.484-0.832-2.056c-0.16-0.816-0.448-1.476-0.828-2.044c-0.156-0.82-0.448-1.484-0.832-2.06
	c-0.16-0.816-0.448-1.472-0.828-2.044c-0.156-0.82-0.448-1.484-0.832-2.056c-0.16-0.812-0.448-1.472-0.824-2.036
	c-0.156-0.824-0.448-1.488-0.832-2.064c-0.16-0.82-0.452-1.484-0.832-2.056c-0.68-3.524-3.5-4.556-7.644-4.556h-328
	c-4.78,0-8.188,1.36-8.188,6.364V304v30c0,1.808,0.488,3.676,1.352,5.3c0.22,0.708,0.484,1.396,0.828,2.044
	c0.216,0.708,0.48,1.4,0.824,2.048c0.22,0.716,0.484,1.412,0.832,2.064c0.216,0.708,0.48,1.396,0.824,2.044
	c0.22,0.712,0.484,1.404,0.832,2.056c0.216,0.712,0.48,1.4,0.824,2.048c0.22,0.712,0.484,1.404,0.832,2.056
	c0.216,0.708,0.48,1.396,0.824,2.044c0.22,0.712,0.484,1.408,0.832,2.056c0.216,0.708,0.48,1.396,0.824,2.044
	c0.216,0.712,0.484,1.408,0.832,2.06c0.22,0.708,0.484,1.4,0.828,2.044c0.216,0.716,0.484,1.408,0.828,2.056
	c0.216,0.712,0.484,1.404,0.828,2.056c0.22,0.708,0.484,1.396,0.828,2.044c0.216,0.716,0.484,1.408,0.828,2.06
	c0.216,0.704,0.48,1.392,0.824,2.04c0.22,0.712,0.484,1.408,0.832,2.06c0.216,0.712,0.48,1.4,0.824,2.048
	c0.22,0.712,0.484,1.404,0.832,2.056c0.216,0.708,0.48,1.396,0.824,2.044c0.22,0.712,0.484,1.408,0.828,2.052
	c0.22,0.716,0.484,1.408,0.832,2.06c0.216,0.704,0.48,1.392,0.824,2.04c0.216,0.712,0.484,1.408,0.832,2.06
	c0.22,0.712,0.484,1.4,0.828,2.048c0.216,0.712,0.484,1.404,0.828,2.056c0.22,0.708,0.484,1.396,0.828,2.044
	c0.216,0.716,0.484,1.408,0.828,2.06c0.22,0.708,0.484,1.396,0.828,2.044c0.216,0.708,0.48,1.4,0.824,2.048
	c0.22,0.712,0.484,1.412,0.832,2.06c0.216,0.712,0.48,1.4,0.824,2.048c0.22,0.712,0.484,1.404,0.832,2.056
	c0.216,0.708,0.48,1.396,0.824,2.044c0.22,0.716,0.484,1.408,0.832,2.06c0.216,0.708,0.48,1.396,0.824,2.044
	c0.22,0.708,0.484,1.4,0.828,2.052c0.216,0.708,0.484,1.404,0.828,2.048c0.216,0.716,0.484,1.408,0.828,2.056
	c0.216,0.712,0.484,1.404,0.828,2.056c0.22,0.708,0.484,1.4,0.828,2.044c0.216,0.716,0.484,1.408,0.828,2.06
	c0.22,0.708,0.484,1.396,0.828,2.044c0.216,0.712,0.484,1.404,0.828,2.056c0.216,0.708,0.48,1.396,0.824,2.044
	c0.22,0.712,0.484,1.408,0.832,2.06c0.216,0.708,0.48,1.396,0.824,2.044c0.22,0.712,0.484,1.408,0.832,2.06
	c0.216,0.708,0.48,1.396,0.824,2.044c0.22,0.712,0.484,1.404,0.828,2.052c0.22,0.712,0.484,1.408,0.832,2.056
	c0.216,0.708,0.48,1.396,0.824,2.044c0.216,0.712,0.484,1.408,0.832,2.06c0.22,0.708,0.484,1.396,0.828,2.044
	c0.216,0.716,0.484,1.408,0.828,2.06c0.22,0.708,0.484,1.396,0.828,2.044c0.216,0.712,0.484,1.404,0.828,2.056
	c0.22,0.712,0.484,1.4,0.828,2.048c0.216,0.708,0.48,1.4,0.824,2.048c0.22,0.712,0.484,1.408,0.832,2.06
	c0.216,0.708,0.48,1.4,0.824,2.044c0.22,0.716,0.484,1.408,0.832,2.06c0.216,0.708,0.48,1.396,0.824,2.044
	c0.22,0.712,0.484,1.404,0.832,2.056c0.216,0.712,0.48,1.4,0.824,2.048c0.22,0.712,0.484,1.404,0.832,2.056
	c0.216,0.704,0.48,1.392,0.824,2.04c0.216,0.712,0.484,1.408,0.832,2.06c0.216,0.712,0.484,1.404,0.828,2.056
	c0.22,0.708,0.484,1.396,0.828,2.044c0.188,0.62,0.44,1.22,0.728,1.8c33.664,16.284,71.428,25.416,111.332,25.416
	C376.904,512,478.116,428.264,505.012,315.676z"/>
<rect x="212.08" y="342" style="fill:#E6E6E6;" width="88" height="36"/>
<path style="fill:#1E2C33;" d="M83.892,304V126.364c0-5.004,3.408-6.364,8.188-6.364h328c4.784,0,7.812,1.36,7.812,6.364V304H83.892
	z"/>
<path style="fill:#F5F5F5;" d="M83.892,304v30c0,4.78,3.408,10,8.188,10h328c4.784,0,7.812-5.22,7.812-10v-30H83.892z"/>
<rect x="100.08" y="138" style="fill:#586874;" width="312" height="148"/>
<path style="fill:#F5F5F5;" d="M328.08,386c0-4.4-3.596-8-8-8h-128c-4.4,0-8,3.6-8,8l0,0c0,4.4,3.6,8,8,8h128
	C324.48,394,328.08,390.4,328.08,386L328.08,386z"/>
<circle style="fill:#1E2C33;" cx="256.08" cy="322" r="8"/>
<g>
</g>
<g>
</g>
<g>
</g>
<g>
</g>
<g>
</g>
<g>
</g>
<g>
</g>
<g>
</g>
<g>
</g>
<g>
</g>
<g>
</g>
<g>
</g>
<g>
</g>
<g>
</g>
<g>
</g>
</svg>
